# xmcd
#
# Track frame offsets:
#	150
#	15561
#	28506
#	42724
#	56798
#	73326
#	88612
#	103095
#	116667
#	130632
#	149287
#	163049
#	177172
#	190554
#	204566
#	218171
#
# Disc length: 3105 seconds
#
# Revision: 0
# Processed by: cddbd v1.5.2PL0 Copyright (c) Steve Scherf et al.
# Submitted via: dBpowerAMP V4.0
#
DISCID=e80c1f10
DTITLE=ม.ร.ว. ถนัดสี สวัดิวฒน์ - สีชัง
DYEAR=1900
DGENRE=Blues
TTITLE0=สีชัง
TTITLE1=รัก
TTITLE2=ลอยลำพร่ำรัก
TTITLE3=จำใจจาก
TTITLE4=เที่ยงคืน
TTITLE5=โศก
TTITLE6=สายสวาท
TTITLE7=เพื่อเธอเพื่อเธอ
TTITLE8=ทำไมหนอ
TTITLE9=ดวงเดือนดวงใจ
TTITLE10=อนิจจา
TTITLE11=วนาลี
TTITLE12=โลกหลับ
TTITLE13=ชื่นจิต
TTITLE14=เขมรไทรโยค
TTITLE15=สักวาลาจาก
EXTD=
EXTT0=
EXTT1=
EXTT2=
EXTT3=
EXTT4=
EXTT5=
EXTT6=
EXTT7=
EXTT8=
EXTT9=
EXTT10=
EXTT11=
EXTT12=
EXTT13=
EXTT14=
EXTT15=
PLAYORDER=
